<?xml version="1.0" encoding="utf-8"?>
<!-- Generator: Adobe Illustrator 21.1.0, SVG Export Plug-In . SVG Version: 6.00 Build 0)  -->
<svg version="1.1" id="Layer_1" xmlns="http://www.w3.org/2000/svg" xmlns:xlink="http://www.w3.org/1999/xlink" x="0px" y="0px"
	 viewBox="0 0 16 16" style="enable-background:new 0 0 16 16;" xml:space="preserve">
<style type="text/css">
	.st0{fill:#F37930;}
</style>
<path d="M5,9.4V7.9h0.1c0.1,0.5,0.3,0.8,0.6,1c0.3,0.2,0.6,0.3,0.9,0.3c0.5,0,0.8-0.2,0.8-0.5c0-0.1-0.1-0.3-0.2-0.3
	C6.9,8.2,6.6,8.1,6.3,8.1C6,8,5.7,7.9,5.4,7.7C5.1,7.5,4.9,7.1,5,6.8c0-0.4,0.1-0.7,0.4-1c0.3-0.3,0.6-0.4,1-0.4
	c0.3,0,0.6,0.1,0.8,0.2c0.1,0,0.2,0.1,0.2,0.1c0.1,0,0.1,0,0.1-0.1c0.1-0.1,0.1-0.1,0.1-0.2h0.1v1.2H7.7c-0.3-0.7-0.7-1-1.3-1
	c-0.2,0-0.4,0-0.6,0.1C5.7,5.8,5.7,5.9,5.7,6c0,0.1,0,0.1,0.1,0.2c0,0,0.1,0.1,0.1,0.1c0,0,0.1,0.1,0.1,0.1l0.1,0.1
	c0,0,0.1,0,0.1,0.1c0,0,0.1,0,0.1,0c0.3,0.1,0.5,0.1,0.8,0.2C7.3,6.8,7.4,6.9,7.6,7C7.9,7.2,8,7.5,8,8c0,0.4-0.1,0.8-0.4,1
	C7.3,9.3,6.9,9.4,6.5,9.4c-0.3,0-0.7-0.1-1-0.2c0,0-0.1-0.1-0.2-0.1C5.3,9.1,5.2,9.2,5,9.4C5.1,9.4,5,9.4,5,9.4z"/>
<path d="M10.2,10.9c0,1.4-0.3,2.8-0.9,4c1-1.4,1.5-3.1,1.5-4.9c0-4.8-3.9-8.7-8.7-8.7c-0.1,0-0.2,0-0.4,0C6.6,2,10.2,6.1,10.2,10.9z
	"/>
<path class="st0" d="M10.5,5.5c-0.3,0-0.6,0.1-0.9,0.2c0.7,1.1,1.1,2.4,1.2,3.7c1.1-0.2,1.8-1.2,1.5-2.3C12.2,6.2,11.4,5.5,10.5,5.5
	z"/>
</svg>
