<?xml version="1.0" encoding="utf-8"?>
<!-- Generator: Adobe Illustrator 21.1.0, SVG Export Plug-In . SVG Version: 6.00 Build 0)  -->
<svg version="1.1" id="Layer_1" xmlns="http://www.w3.org/2000/svg" xmlns:xlink="http://www.w3.org/1999/xlink" x="0px" y="0px"
	 viewBox="0 0 153.3 76" style="enable-background:new 0 0 153.3 76;" xml:space="preserve">
<style type="text/css">
	.st0{fill:#222222;}
	.st1{fill:#F37930;}
	.st2{fill:#AAAAAA;}
</style>
<title>Untitled-1</title>
<path class="st0" d="M87,44.5H76.7l-0.5-3.3c-0.4,1.1-1.2,2.1-2.1,2.8c-1.3,0.7-2.7,1.1-4.2,1c-4.7,0-7-2.5-7-7.5V23.9h-2.5v-0.8
	h10.9v15.4c-0.1,1.2,0,2.4,0.4,3.6c0.3,0.6,0.9,1,1.5,0.9c0.9-0.1,1.6-0.6,2-1.4c0.7-1.2,1-2.5,0.9-3.9V23.9h-2v-0.8h10.4v20.6H87
	L87,44.5L87,44.5z"/>
<path class="st0" d="M102.9,24.4c-1.1,0-2.1,0.7-2.9,2.2c-0.9,1.6-1.3,3.3-1.3,5.1v12.1h3.2v0.8h-14v-0.8h2.5V23.9h-2.5v-0.8h10.8
	v4.3c0.3-1.4,1.1-2.7,2.3-3.5c1.1-0.8,2.4-1.3,3.8-1.2c1.3,0,2.5,0.4,3.4,1.2c0.9,0.9,1.4,2.1,1.3,3.4c0.1,1.2-0.3,2.4-1,3.4
	c-0.8,0.8-1.9,1.2-3,1.2c-1.2,0.1-2.3-0.4-3-1.4c-0.7-1.1-0.8-2.5-0.3-3.7h1.6C104.6,25.1,104.3,24.4,102.9,24.4z"/>
<path class="st0" d="M122.6,23.5c-1.3,0-2.5,0.9-2.8,2.2c-0.7,2.3-1,4.7-0.9,7.2v2.3c0,3,0.3,5.1,1,6.4c0.7,1.3,2.2,2.1,3.7,1.9
	c1.6,0.1,3.2-0.6,4.2-1.8c1-1.2,1.7-2.6,2-4.1l0.9,0.1c-0.3,2.2-1.5,4.2-3.2,5.6c-1.9,1.3-4.2,1.9-6.5,1.8c-3.5,0-6.1-0.9-8-2.8
	c-1.9-1.9-2.8-4.6-2.8-8.2c0-3.6,1.1-6.4,3.2-8.4s5.1-2.9,8.8-2.9c2.2-0.1,4.3,0.4,6.1,1.5c1.3,0.9,2.1,2.3,2.1,3.9
	c0.1,1.2-0.2,2.4-1,3.4c-0.7,0.8-1.8,1.1-2.8,1.1c-1,0-2.1-0.3-2.9-1c-0.8-0.7-1.2-1.7-1.1-2.8c0-0.5,0.1-1.1,0.2-1.6h1.5
	c0.2-0.5,0.3-1.1,0.3-1.6c0.1-1-0.6-2-1.6-2.1C122.9,23.5,122.7,23.5,122.6,23.5z"/>
<path class="st0" d="M134.8,42c-1.9-2-2.9-4.8-2.9-8.3s1.1-6.3,3.3-8.2c2.3-1.9,5.3-2.9,8.3-2.8c6.8,0,10.1,3.4,9.8,10.3h-12.7v1.8
	c-0.1,2.3,0.3,4.6,1.1,6.7c0.7,1.5,2.2,2.4,3.9,2.2c3.5,0,5.8-1.9,6.8-5.6l0.8,0.1c-0.5,2-1.5,3.7-3.1,5c-1.5,1.2-3.7,1.8-6.7,1.8
	C139.6,45,136.8,44,134.8,42z M140.6,32h4.6v-2.2c0.1-1.7-0.1-3.4-0.4-5c-0.2-0.8-0.9-1.4-1.7-1.3c-0.9,0-1.6,0.6-1.9,1.4
	c-0.5,1.6-0.7,3.2-0.6,4.9L140.6,32L140.6,32z"/>
<path class="st0" d="M17.7,45v-8.1h0.5c0.8,2.6,1.8,4.4,3.1,5.5c1.4,1.1,3.2,1.7,5,1.6c3.1,0,4.6-1,4.6-2.9c0-0.8-0.4-1.5-1.1-1.9
	c-1.4-0.7-2.9-1.3-4.5-1.5c-1.8-0.4-3.5-1.2-5.1-2.2c-1.7-1.1-2.6-3.1-2.5-5.1c-0.1-2.1,0.7-4.1,2.2-5.6c1.5-1.4,3.6-2.2,5.7-2.1
	c1.6,0,3.1,0.4,4.5,1c0.4,0.2,0.8,0.3,1.3,0.4c0.3,0,0.6-0.1,0.8-0.3c0.3-0.4,0.6-0.7,0.8-1.2h0.5v6.9H33c-1.5-3.9-3.9-5.9-7.1-5.9
	c-1.1-0.1-2.2,0.2-3.1,0.7c-0.6,0.4-1,1.1-1,1.9c0,0.4,0.1,0.8,0.3,1.1c0.2,0.3,0.4,0.4,0.5,0.6c0.2,0.2,0.4,0.3,0.6,0.4l0.7,0.3
	c0.2,0.1,0.5,0.2,0.8,0.3c0.3,0.1,0.5,0.2,0.8,0.2c1.5,0.3,3,0.8,4.4,1.3c0.9,0.4,1.8,0.8,2.6,1.4c1.6,1.1,2.5,3,2.5,5.5
	c0.1,2.2-0.7,4.3-2.3,5.8c-1.7,1.4-3.9,2.1-6.2,2c-1.9,0-3.7-0.5-5.4-1.3c-0.2-0.2-0.5-0.3-0.9-0.4c-0.7,0-1.3,0.6-1.9,1.7
	C18.3,45,17.7,45,17.7,45z"/>
<path class="st0" d="M47.2,53.5c0,7.8-1.7,15.4-4.9,22.5c5.5-8.1,8.4-17.6,8.4-27.4C50.7,21.8,28.9,0,2,0C1.4,0,0.7,0,0,0.1
	C27,3.4,47.2,26.4,47.2,53.5z"/>
<path class="st1" d="M48.9,23.1c-1.7,0-3.3,0.4-4.8,1.1c3.7,6.3,5.9,13.4,6.5,20.7c6-1.2,9.8-7,8.7-12.9
	C58.2,26.9,53.9,23.3,48.9,23.1z"/>
<path class="st2" d="M100.3,56.3c0.3,0.2,0.6,0.6,0.7,0.9c0.2,0.6,0.3,1.1,0.2,1.7v4.8h-1.5v-4.7c0-0.3,0-0.7-0.1-1
	c-0.1-0.2-0.2-0.4-0.4-0.6c-0.3-0.1-0.6-0.2-0.9-0.2c-0.3,0-0.6,0.1-0.9,0.2c-0.4,0.1-0.7,0.3-1,0.5c0.1,0.3,0.1,0.7,0.1,1v4.8h-1.5
	v-4.7c0-0.3,0-0.7-0.1-1c-0.1-0.2-0.2-0.4-0.4-0.6c-0.3-0.1-0.6-0.2-0.9-0.2c-0.3,0-0.6,0.1-0.9,0.2c-0.4,0.1-0.7,0.3-1,0.6v5.8
	h-1.5V56h1.3v1c0.4-0.3,0.8-0.5,1.3-0.6c0.5-0.2,0.9-0.3,1.5-0.4c0.4,0,0.9,0.1,1.3,0.2c0.3,0.1,0.6,0.4,0.7,0.7
	c0.4-0.3,0.9-0.5,1.3-0.7c0.5-0.2,1-0.3,1.5-0.3C99.4,56,99.9,56.1,100.3,56.3z"/>
<path class="st2" d="M107.7,56.2c0.4,0.1,0.7,0.4,0.9,0.7c0.2,0.5,0.4,1,0.3,1.5v5.4h-0.6c-0.2,0-0.3,0-0.5,0
	c-0.1,0-0.2-0.1-0.3-0.2c-0.1-0.2-0.1-0.3-0.1-0.5v-0.1c-0.3,0.2-0.6,0.4-0.9,0.5c-0.4,0.2-0.8,0.2-1.3,0.2c-0.4,0-0.8-0.1-1.2-0.3
	c-0.4-0.2-0.6-0.4-0.8-0.8c-0.2-0.4-0.3-0.8-0.3-1.2c0-0.5,0.1-0.9,0.4-1.3c0.3-0.4,0.7-0.7,1.1-0.8c0.5-0.2,0.9-0.3,1.4-0.4
	c0.5-0.1,1-0.1,1.5-0.1v-0.7c0-0.3,0-0.5-0.2-0.7c-0.1-0.2-0.3-0.3-0.5-0.3c-0.3-0.1-0.7-0.1-1-0.1c-0.3,0-0.5,0-0.8,0.1
	c-0.3,0-0.5,0.1-0.8,0.2c-0.2,0.1-0.4,0.1-0.6,0.2l-0.4-0.9c0.2-0.1,0.4-0.2,0.7-0.3c0.3-0.1,0.7-0.2,1.1-0.3
	c0.4-0.1,0.8-0.1,1.2-0.1C106.7,56,107.2,56.1,107.7,56.2z M106.5,62.6c0.2-0.1,0.4-0.1,0.6-0.2c0.1-0.1,0.2-0.1,0.3-0.2V60
	c-0.4,0-0.7,0-1.1,0.1c-0.3,0-0.7,0.1-1,0.3c-0.2,0.1-0.5,0.3-0.6,0.5c-0.2,0.2-0.2,0.4-0.2,0.7c-0.1,0.6,0.4,1.2,1,1.2
	c0.1,0,0.2,0,0.3,0C106.1,62.7,106.3,62.7,106.5,62.6z"/>
<path class="st2" d="M118.2,57.3h-1.4c0.2,0.4,0.4,0.8,0.3,1.3c0,0.5-0.1,1-0.4,1.4c-0.3,0.4-0.7,0.7-1.1,0.9
	c-0.5,0.2-1.1,0.3-1.6,0.3c-0.3,0-0.6,0-0.8-0.1c-0.1,0.1-0.2,0.2-0.3,0.4c-0.1,0.1-0.1,0.3-0.1,0.5c0,0.2,0,0.5,0.2,0.6
	c0.2,0.1,0.4,0.2,0.7,0.2h1.4c0.8-0.1,1.6,0.1,2.3,0.6c0.4,0.4,0.7,1,0.6,1.6c0,0.5-0.2,1-0.5,1.3c-0.4,0.4-0.8,0.7-1.4,0.9
	c-0.6,0.2-1.3,0.3-1.9,0.3c-0.8,0-1.7-0.1-2.4-0.6c-0.6-0.4-0.9-1-0.9-1.7c0-0.3,0.1-0.7,0.3-0.9c0.2-0.3,0.5-0.5,0.8-0.6
	c-0.4-0.2-0.6-0.7-0.6-1.2c0-0.3,0.1-0.6,0.3-0.8c0.2-0.3,0.4-0.5,0.7-0.7c-0.4-0.2-0.7-0.5-1-0.9c-0.2-0.4-0.4-0.8-0.4-1.2
	c0-0.5,0.1-1,0.4-1.5c0.3-0.4,0.7-0.7,1.1-0.9c0.5-0.2,1.1-0.3,1.6-0.3c0.7,0,1.3,0.1,1.9,0.5c0.2-0.1,0.4-0.3,0.7-0.3
	c0.3-0.1,0.5-0.1,0.8-0.1h0.8L118.2,57.3L118.2,57.3z M112.8,63.8c-0.2,0.1-0.3,0.3-0.4,0.4c-0.1,0.2-0.1,0.4-0.1,0.6
	c0,0.4,0.1,0.8,0.4,1.1c0.4,0.3,0.9,0.4,1.4,0.3c0.4,0,0.8,0,1.2-0.1c0.3-0.1,0.6-0.2,0.8-0.4c0.2-0.1,0.3-0.4,0.3-0.6
	c0-0.2,0-0.5-0.2-0.7c-0.1-0.2-0.3-0.4-0.6-0.4c-0.4-0.1-0.8-0.2-1.2-0.2h-0.7C113.5,63.8,113.1,63.8,112.8,63.8L112.8,63.8z
	 M115.2,59.8c0.3-0.3,0.5-0.7,0.4-1.2c0-0.4-0.1-0.8-0.4-1.2c-0.3-0.3-0.7-0.4-1.2-0.4c-0.4,0-0.8,0.1-1.2,0.3
	c-0.3,0.3-0.5,0.7-0.4,1.2c0,0.4,0.1,0.8,0.4,1.1c0.3,0.3,0.7,0.5,1.2,0.4C114.5,60.2,114.9,60,115.2,59.8L115.2,59.8z"/>
<path class="st2" d="M123.8,56.2c0.4,0.1,0.7,0.4,0.9,0.7c0.2,0.5,0.4,1,0.3,1.5v5.4h-0.6c-0.2,0-0.3,0-0.5,0
	c-0.1,0-0.2-0.1-0.3-0.2c-0.1-0.2-0.1-0.3-0.1-0.5v-0.1c-0.3,0.2-0.6,0.4-0.9,0.5c-0.4,0.2-0.8,0.2-1.3,0.2c-0.4,0-0.8-0.1-1.2-0.3
	c-0.4-0.2-0.6-0.4-0.8-0.8c-0.2-0.4-0.3-0.8-0.3-1.2c0-0.5,0.1-0.9,0.4-1.3c0.3-0.4,0.7-0.7,1.1-0.8c0.5-0.2,0.9-0.3,1.4-0.4
	c0.5-0.1,1-0.1,1.5-0.1v-0.7c0-0.3,0-0.5-0.2-0.7c-0.1-0.2-0.3-0.3-0.5-0.3c-0.3-0.1-0.7-0.1-1-0.1c-0.3,0-0.5,0-0.8,0.1
	c-0.3,0-0.5,0.1-0.8,0.2c-0.2,0.1-0.4,0.1-0.6,0.2l-0.4-0.9c0.2-0.1,0.4-0.2,0.7-0.3c0.3-0.1,0.7-0.2,1.1-0.3
	c0.4-0.1,0.8-0.1,1.2-0.1C122.8,56,123.3,56.1,123.8,56.2z M122.6,62.6c0.2-0.1,0.4-0.1,0.6-0.2c0.1-0.1,0.2-0.1,0.3-0.2V60
	c-0.4,0-0.7,0-1.1,0.1c-0.3,0-0.7,0.1-1,0.3c-0.2,0.1-0.5,0.3-0.6,0.5c-0.2,0.2-0.2,0.4-0.2,0.7c-0.1,0.6,0.4,1.2,1,1.2
	c0.1,0,0.2,0,0.3,0C122.2,62.7,122.4,62.7,122.6,62.6z"/>
<path class="st2" d="M130.9,57.2h-3.8V56h5.5l0.2,0.7l-3.8,5.5l-0.4,0.6h4v1.1H127l-0.3-0.6L130.9,57.2z"/>
<path class="st2" d="M134.6,53.2c0.1-0.2,0.2-0.3,0.4-0.4c0.2-0.1,0.3-0.1,0.5-0.1c0.3,0,0.5,0.1,0.7,0.3c0.2,0.2,0.3,0.4,0.3,0.7
	c0,0.2-0.1,0.4-0.2,0.5c-0.1,0.2-0.2,0.3-0.4,0.4c-0.2,0.1-0.4,0.1-0.5,0.1c-0.2,0-0.3,0-0.5-0.1c-0.1-0.1-0.2-0.2-0.3-0.3
	c-0.1-0.1-0.1-0.3-0.1-0.5C134.5,53.5,134.5,53.3,134.6,53.2z M136.2,56v7.8h-1.5V56H136.2z"/>
<path class="st2" d="M140.1,56v1c0.4-0.3,0.9-0.5,1.3-0.6c0.5-0.2,1-0.3,1.5-0.3c0.4,0,0.9,0.1,1.3,0.3c0.3,0.2,0.6,0.6,0.7,1
	c0.2,0.6,0.2,1.2,0.2,1.8v4.8h-1.5v-4.9c0-0.3,0-0.7-0.1-1c-0.1-0.2-0.2-0.4-0.4-0.6c-0.2-0.1-0.5-0.2-0.8-0.2h-0.2
	c-0.3,0-0.6,0.1-0.9,0.2c-0.4,0.1-0.7,0.3-1,0.6v5.8h-1.5V56H140.1L140.1,56z"/>
<path class="st2" d="M153.3,59.7c0,0.2,0,0.3-0.1,0.5h-4.8c0,0,0,0.1,0,0.1c-0.1,1.2,0.7,2.3,1.9,2.4c0.2,0,0.3,0,0.5,0
	c0.3,0,0.7-0.1,1-0.1c0.3-0.1,0.6-0.1,0.9-0.3l0.3,0.9c-0.3,0.2-0.7,0.4-1.1,0.5c-0.5,0.1-1,0.2-1.5,0.2c-0.7,0-1.3-0.1-1.9-0.5
	c-0.5-0.3-0.9-0.8-1.1-1.4c-0.3-0.7-0.4-1.4-0.4-2.1c0-0.7,0.1-1.4,0.4-2c0.3-0.6,0.7-1,1.2-1.4c0.6-0.3,1.2-0.5,1.9-0.5
	c0.5,0,1,0.1,1.4,0.3c0.4,0.2,0.8,0.6,1,1c0.3,0.5,0.4,1,0.4,1.5C153.3,59.2,153.3,59.5,153.3,59.7z M151.9,58.9
	c0-0.5-0.1-0.9-0.4-1.3c-0.3-0.4-0.8-0.5-1.2-0.5c-0.5,0-0.9,0.2-1.3,0.5c-0.4,0.4-0.6,1-0.6,1.6h3.4
	C151.9,59,151.9,58.9,151.9,58.9L151.9,58.9z"/>
</svg>
